<svg xmlns="http://www.w3.org/2000/svg" width="20" height="20" fill="none" viewBox="0 0 20 20"><g stroke="#2b2620" stroke-linecap="round" stroke-linejoin="round" stroke-width="1.25"><path d="M15.656 10.1V5.986c0-.546 0-.819-.079-1.038a1.33 1.33 0 0 0-.803-.803c-.219-.079-.492-.079-1.038-.079h-7.47c-.547 0-.82 0-1.039.08a1.33 1.33 0 0 0-.802.802c-.08.219-.08.492-.08 1.038V10.1"/><path d="M9.167 10.1v-.5c0-.34 0-.511-.05-.648a.83.83 0 0 0-.501-.502c-.137-.05-.308-.05-.65-.05H7.45c-.341 0-.512 0-.649.05a.83.83 0 0 0-.502.502c-.049.137-.049.307-.049.649v.498m7.5.001v-.5c0-.34 0-.511-.05-.648a.83.83 0 0 0-.501-.502c-.137-.05-.308-.05-.649-.05h-.517c-.341 0-.512 0-.649.05a.83.83 0 0 0-.501.502c-.05.137-.05.307-.05.649v.498"/><path d="M17.5 15.933v-3.914c0-.546 0-.82-.079-1.038a1.33 1.33 0 0 0-.803-.803c-.219-.079-.492-.079-1.038-.079H4.42c-.546 0-.82 0-1.038.08a1.33 1.33 0 0 0-.803.802c-.079.219-.079.492-.079 1.038v3.914m0-1.033h15"/></g></svg>