<svg xmlns="http://www.w3.org/2000/svg" width="24" height="24" fill="none" viewBox="0 0 24 24"><g fill="#fff"><path d="M20.919 7.756c-5.167-5.114-12.67-5.113-17.835 0a1.96 1.96 0 0 0-.128 2.644l.853 1.014a.306.306 0 0 0 .453.014c2.14-2.193 4.863-3.396 7.727-3.399h.012c2.866 0 5.594 1.201 7.741 3.396a.306.306 0 0 0 .453-.014l.85-1.01a1.963 1.963 0 0 0-.126-2.645"/><path d="M18.835 13.028a.294.294 0 0 0-.009-.392c-1.886-2.006-4.3-3.107-6.825-3.107h-.01c-2.524.003-4.933 1.105-6.813 3.112a.295.295 0 0 0-.008.391l1.804 2.145a.31.31 0 0 0 .448.023c1.296-1.2 2.899-1.857 4.567-1.86h.014c1.67 0 3.278.653 4.583 1.854a.31.31 0 0 0 .446-.024z"/><path d="m10.517 19.388-2.188-2.601a.29.29 0 0 1 .016-.396c1.037-1 2.32-1.549 3.647-1.552h.01c1.329 0 2.616.546 3.659 1.543a.29.29 0 0 1 .017.397l-2.195 2.608a1.932 1.932 0 0 1-2.967 0"/></g></svg>