<svg xmlns="http://www.w3.org/2000/svg" width="20" height="20" fill="none" viewBox="0 0 20 20"><g stroke="#2b2620" stroke-linecap="round" stroke-linejoin="round" stroke-width="1.25"><path d="M15.98 17.462H4.02c-.67 0-1.265-.43-1.477-1.064a.835.835 0 0 1 .793-1.1h13.328c.57 0 .973.559.793 1.1a1.56 1.56 0 0 1-1.477 1.064" clip-rule="evenodd"/><path d="M11.102 7.888v-.943a1.103 1.103 0 0 0-2.204 0v.943"/><path d="m3.553 15.299-.034-.691a6.49 6.49 0 1 1 12.963 0l-.035.69M15.02 4.463a.995.995 0 0 0 0 1.409m-11.958 0a.995.995 0 0 1 0 1.408M6.78 2.538a.996.996 0 0 1 0 1.409.995.995 0 0 0 0 1.408"/></g></svg>