<svg xmlns="http://www.w3.org/2000/svg" width="20" height="20" fill="none" viewBox="0 0 20 20"><g stroke="#2b2620" stroke-linecap="round" stroke-linejoin="round" stroke-width="1.25"><path d="M3.748 7.313v7.229A2.553 2.553 0 0 0 6.3 17.095h7.4a2.553 2.553 0 0 0 2.552-2.553v-7.23"/><path d="m17.5 8.297-6.272-4.965a1.98 1.98 0 0 0-2.456 0L2.5 8.297M14.723 4.12v1.96M8.036 17.095v-3.099c0-.667 0-1 .124-1.258a1.25 1.25 0 0 1 .583-.583c.258-.124.591-.124 1.258-.124.668 0 1.001 0 1.258.124.255.123.46.329.583.583.124.258.124.591.124 1.258v3.1"/></g></svg>