<svg xmlns="http://www.w3.org/2000/svg" width="93" height="28" fill="none" viewBox="0 0 93 28"><g fill="#2b2620"><path d="M0 .121h3V28H0z"/><path d="M5 .115h2v27.879H5zm4-.019h4v27.879H9z" opacity=".78"/><path d="M15 .089h1v27.879h-1z"/><path d="M18 .108h3v27.879h-3zm5-.025h2v27.879h-2z" opacity=".78"/><path d="M27 .07h5v27.879h-5z"/><path d="M34 .057h2v27.879h-2zm4 .02h3v27.879h-3z" opacity=".78"/><path d="M43 .064h1v27.879h-1z"/><path d="M46 .051h4V27.93h-4zm6-.006h2v27.879h-2z" opacity=".78"/><path d="M56 .038h3v27.879h-3z"/><path d="M61 .032h5v27.879h-5zm7-.006h2v27.879h-2z" opacity=".78"/><path d="M72 .019h3v27.879h-3z"/><path d="M77 .013h1v27.879h-1zm3-.007h4v27.879h-4z" opacity=".78"/><path d="M86 0h2v27.879h-2z"/><path d="M90 .102h3v27.879h-3z" opacity=".78"/></g></svg>