<svg xmlns="http://www.w3.org/2000/svg" width="107" height="42" fill="none" viewBox="0 0 107 42"><g stroke="#c25a2e" stroke-width="1.275"><path fill="#f5d98a" d="M17 26.95a5.95 5.95 0 1 0 0-11.9 5.95 5.95 0 0 0 0 11.9Z"/><path stroke-linecap="round" d="M26.35 21h4.25m-6.989 6.611 3.006 3.006M17 30.35v4.25m-6.611-6.989-3.006 3.006M7.65 21H3.4m6.989-6.611-3.006-3.006M17 11.65V7.4m6.611 6.989 3.006-3.006"/></g><path fill="#b7411b" d="m50.72 13.35-.76.46 6.23-10.08q.26-.42.56-.57.31-.16.62-.16h2.07q.27 0 .36.09.1.09.09.25a.4.4 0 0 1-.14.28.8.8 0 0 1-.31.15l-.61.13a.7.7 0 0 0-.38.21q-.15.16-.2.47-.09.48-.23 1.2-.13.72-.3 1.6-.17.87-.36 1.81L57 11.06q-.17.93-.33 1.77l-.27 1.49q-.11.66-.17 1.06-.05.3.03.49.08.18.32.24l.67.16a.6.6 0 0 1 .24.13q.09.07.08.22a.38.38 0 0 1-.16.28q-.13.1-.39.1H52.8q-.26 0-.37-.1a.34.34 0 0 1-.09-.27q.01-.17.13-.25a.8.8 0 0 1 .28-.13l.66-.14a.94.94 0 0 0 .44-.24q.18-.17.25-.52.11-.61.26-1.38l.32-1.65q.18-.89.36-1.83a157 157 0 0 0 .71-3.74q.16-.91.29-1.72l.29-.08-6.01 9.9q-.25.36-.44.5a.7.7 0 0 1-.45.14q-.21 0-.36-.18t-.22-.47l-.25-1.54-.25-1.64q-.12-.84-.25-1.7l-.26-1.71a90 90 0 0 0-.27-1.68 65 65 0 0 0-.27-1.58l.41-.08-2.94 9.92q-.15.58-.05.88.11.29.47.4l.58.14q.33.12.31.35a.43.43 0 0 1-.19.3q-.15.1-.43.1h-3.13q-.27 0-.38-.1a.32.32 0 0 1-.11-.27.36.36 0 0 1 .14-.28.8.8 0 0 1 .33-.15l.48-.11q.28-.07.48-.23.21-.16.38-.5t.34-.95l2.83-9.65q.12-.37.04-.58t-.33-.27l-.7-.17a.7.7 0 0 1-.25-.14.27.27 0 0 1-.06-.23.32.32 0 0 1 .15-.27q.15-.1.39-.1h2.14q.39 0 .63.22.24.21.34.72.12.68.24 1.43a258 258 0 0 1 .48 3.12l.26 1.63.28 1.63q.15.81.29 1.6m16.365 1.07q-.21.82-.14 1.13t.31.31q.18 0 .36-.11a3 3 0 0 0 .46-.37 1 1 0 0 1 .26-.19.23.23 0 0 1 .2.01q.12.06.11.21a.9.9 0 0 1-.11.36q-.36.66-1.03 1.05-.66.39-1.36.39-.58 0-.86-.29t-.28-.84q0-.23.03-.51.04-.28.14-.69.1-.42.28-1.03.18-.62.46-1.51l.18.32q-.54 1.45-1.31 2.47-.77 1.01-1.67 1.55-.9.53-1.84.53-1.05 0-1.63-.71-.57-.71-.42-2.24.09-1 .5-1.96.42-.96 1.09-1.8a8.2 8.2 0 0 1 1.56-1.48 7.1 7.1 0 0 1 1.91-.99 6.6 6.6 0 0 1 2.16-.36q.84 0 1.4.12t.83.33q.28.2.26.46a.5.5 0 0 1-.15.33q-.12.12-.25.24a.64.64 0 0 0-.19.33zm-5.76-.23q-.1 1.04.16 1.46.27.42.76.42.45 0 .95-.35.51-.35 1.02-.99a9.5 9.5 0 0 0 .97-1.47q.45-.84.79-1.81t.5-2q.09-.51-.06-.74-.15-.24-.51-.24-.62 0-1.25.32a4.7 4.7 0 0 0-1.18.89 7.4 7.4 0 0 0-1.02 1.29 8 8 0 0 0-.76 1.56 7 7 0 0 0-.37 1.66m11.371.23q-.29.79-.21 1.11.08.31.34.31a.8.8 0 0 0 .36-.1q.19-.11.46-.38.171-.15.27-.19a.23.23 0 0 1 .2.01q.12.05.11.2 0 .15-.11.37a2.74 2.74 0 0 1-1.04 1.06q-.66.39-1.48.39-.609 0-.93-.28-.31-.28-.32-.81-.009-.54.27-1.3l1.61-4.35q.291-.79.21-1.11-.07-.32-.34-.32a.76.76 0 0 0-.36.11q-.19.1-.47.38a1 1 0 0 1-.27.18.26.26 0 0 1-.2 0q-.11-.06-.11-.21.01-.15.12-.36.37-.67 1.03-1.06.66-.4 1.46-.4.57 0 .88.28.32.27.35.82.04.54-.26 1.35zm1.33-8.64q-.63 0-.97-.34a1 1 0 0 1-.27-.84q.04-.39.28-.72.25-.34.65-.55.41-.21.92-.21.67 0 .97.35.31.35.25.85a1.5 1.5 0 0 1-.29.74q-.24.33-.64.53-.399.19-.9.19m4.805 10.7q.66 0 1.07-.34.42-.35.42-.89 0-.31-.13-.59-.129-.29-.48-.64a8.5 8.5 0 0 0-1-.84q-.72-.54-1.14-.96a2.9 2.9 0 0 1-.59-.83 2.4 2.4 0 0 1-.17-.93q.01-.76.47-1.39.46-.64 1.32-1.02.86-.39 2.06-.39.94 0 1.58.26.65.25.98.68.34.42.34.92 0 .39-.18.61a.61.61 0 0 1-.49.21.78.78 0 0 1-.51-.18q-.22-.19-.43-.67-.27-.56-.64-.85-.37-.3-.91-.3-.74 0-1.19.4-.44.39-.44 1 0 .31.12.61.13.3.47.67.35.37 1.01.89.77.59 1.18 1.03.42.43.58.83.16.39.16.87 0 .74-.46 1.32t-1.3.92q-.84.33-1.98.33-1.01 0-1.71-.29-.7-.3-1.06-.77t-.36-.99q0-.36.17-.58.18-.22.48-.22.32 0 .55.21.24.21.46.67.351.68.78.96.44.28.97.28m10.925-8.82q1.23.03 2.09.6t1.23 1.61q.38 1.03.12 2.47a6.4 6.4 0 0 1-.71 2 5.8 5.8 0 0 1-1.26 1.56q-.75.65-1.68 1a5.2 5.2 0 0 1-1.96.31q-1.19-.04-2.05-.6-.85-.56-1.22-1.6-.36-1.04-.11-2.48.21-1.1.71-2.01a5.7 5.7 0 0 1 1.24-1.56 5.4 5.4 0 0 1 1.66-.99 4.9 4.9 0 0 1 1.94-.31m-2.13 8.74q.43.04.85-.12t.8-.5q.39-.35.71-.85.33-.51.58-1.18.26-.67.42-1.47.25-1.24.16-2.06-.09-.83-.46-1.26-.36-.44-.97-.49a1.7 1.7 0 0 0-.84.11 2.6 2.6 0 0 0-.78.51 4.4 4.4 0 0 0-.7.85q-.32.51-.57 1.18-.25.66-.41 1.47-.25 1.24-.17 2.07.09.82.45 1.25t.93.49m7.384-6.7q-.11-.06-.11-.21t.12-.36q.37-.67 1.04-1.06.68-.4 1.5-.4.54 0 .85.24.32.24.32.72 0 .29-.12.67-.11.38-.32.9t-.51 1.25q-.3.72-.66 1.7l-.04-.4q.57-1.43 1.29-2.41t1.48-1.57q.77-.59 1.5-.84.73-.26 1.33-.26.83 0 1.17.36.35.35.32 1t-.35 1.56l-1.34 3.83q-.29.8-.21 1.12.08.31.34.31a.7.7 0 0 0 .36-.11q.19-.11.46-.38.17-.14.27-.18a.23.23 0 0 1 .2.01q.12.05.11.2 0 .15-.11.37a2.83 2.83 0 0 1-2.52 1.45q-.61 0-.92-.28t-.33-.81q-.01-.54.25-1.29l1.38-3.96q.36-.99.24-1.39-.11-.4-.65-.4-.41 0-.94.27t-1.1.81a7.2 7.2 0 0 0-1.08 1.37 10.3 10.3 0 0 0-.91 1.92l-.34.99q-.12.38-.17.6t-.05.38q0 .26.08.44.08.17.08.42 0 .42-.46.68-.45.25-1.22.25-.62 0-.75-.46-.13-.47.22-1.43l1.73-4.86q.28-.8.21-1.11-.07-.32-.35-.32a.76.76 0 0 0-.36.11q-.19.1-.46.38a1 1 0 0 1-.27.18.26.26 0 0 1-.2 0"/><path fill="#2b2620" d="M48.59 39.31q-.82 0-1.41-.2a8 8 0 0 1-.97-.39q-.37-.2-.55-.2a.44.44 0 0 0-.32.13q-.13.12-.25.28t-.25.28a.45.45 0 0 1-.32.12.48.48 0 0 1-.34-.13q-.13-.12-.18-.4l-.69-3.3q-.03-.21.06-.36a.5.5 0 0 1 .3-.23q.23-.08.4.01.18.09.31.34.58 1.14 1.23 1.81t1.35.96q.7.28 1.43.28 1.03 0 1.62-.53.59-.54.59-1.44a2 2 0 0 0-.26-1.05q-.27-.48-1.02-.92t-2.21-.91q-1.52-.5-2.44-1.14-.91-.64-1.33-1.5-.41-.87-.41-2 0-1.21.58-2.13a3.9 3.9 0 0 1 1.62-1.43q1.05-.52 2.44-.52.9 0 1.49.19.59.18.96.37.38.19.63.19a.38.38 0 0 0 .34-.19l.27-.39q.14-.2.42-.2.21 0 .35.14.15.13.25.5l.95 3.31a.67.67 0 0 1-.02.46.45.45 0 0 1-.31.27.54.54 0 0 1-.41-.02.73.73 0 0 1-.29-.31q-.63-1.25-1.34-1.97-.7-.73-1.46-1.04a3.8 3.8 0 0 0-1.52-.32q-1.02 0-1.63.59-.6.59-.6 1.54 0 .58.26 1.07.27.49 1 .96.74.47 2.13.98 1.56.56 2.47 1.2t1.31 1.44.4 1.84a3.8 3.8 0 0 1-.56 1.99q-.54.9-1.57 1.44-1.03.53-2.5.53m11.528-9.99q1.54 0 2.7.63a4.54 4.54 0 0 1 1.82 1.76q.65 1.12.65 2.6 0 1.41-.67 2.53a4.8 4.8 0 0 1-1.86 1.76q-1.18.65-2.74.65-1.53 0-2.7-.64a4.7 4.7 0 0 1-1.82-1.76q-.65-1.12-.65-2.58 0-1.43.67-2.54a4.75 4.75 0 0 1 1.85-1.76q1.19-.65 2.75-.65m.7 8.91a1.68 1.68 0 0 0 1.09-.63q.42-.52.53-1.44.12-.92-.12-2.22-.23-1.3-.67-2.13-.43-.84-1.03-1.21-.6-.38-1.3-.26-.68.1-1.1.63-.41.52-.52 1.44-.1.92.13 2.22.22 1.29.66 2.13t1.03 1.21q.6.37 1.3.26m9.876-13.48v12.68q0 .31.08.45.09.14.27.2l.38.1q.19.06.27.17.09.1.09.25 0 .18-.13.29-.12.11-.4.11h-3.94q-.28 0-.41-.11a.38.38 0 0 1-.12-.29q0-.15.08-.25a.7.7 0 0 1 .28-.17l.4-.1q.17-.06.26-.2t.09-.45V26.41q0-.24-.08-.35a.37.37 0 0 0-.24-.14l-.54-.04a.5.5 0 0 1-.25-.12.33.33 0 0 1-.08-.23q0-.16.09-.26.1-.1.36-.2l1.9-.68a8 8 0 0 1 .6-.2q.23-.06.39-.06.33 0 .49.17a.63.63 0 0 1 .16.45m11.568 8.36q0 .52-.3.8-.29.28-.85.28h-6.24v-.75h4.09q.49 0 .49-.45 0-1.33-.48-2.02t-1.28-.69q-.62 0-1.1.38-.471.37-.75 1.09-.27.71-.27 1.71 0 1.94.91 2.91t2.41.97q.89 0 1.55-.36.67-.36 1.03-1.02.17-.19.27-.26a.4.4 0 0 1 .22-.07q.15 0 .22.14t.07.34a2.72 2.72 0 0 1-.6 1.57q-.56.71-1.51 1.14-.94.43-2.17.43-1.44 0-2.55-.59a4.5 4.5 0 0 1-1.75-1.67q-.63-1.07-.63-2.51 0-1.51.6-2.67.61-1.17 1.73-1.83 1.13-.66 2.69-.66 1.32 0 2.26.49.95.48 1.44 1.34.5.85.5 1.96m5.375-3.12v7.44q0 .31.08.45.09.14.27.2l.39.1q.19.06.27.17.09.1.09.25 0 .18-.13.29t-.41.11h-3.94q-.27 0-.4-.11a.38.38 0 0 1-.12-.29q0-.15.08-.25a.7.7 0 0 1 .27-.17l.4-.1a.45.45 0 0 0 .26-.2q.09-.14.09-.45v-5.78q0-.25-.08-.36-.07-.11-.24-.13l-.53-.04a.5.5 0 0 1-.26-.13.36.36 0 0 1-.07-.23q0-.16.09-.25.1-.1.36-.2l1.89-.68q.39-.15.61-.2.22-.06.39-.06.32 0 .48.17a.63.63 0 0 1 .16.45m-1.61-2.14q-.8 0-1.28-.41-.48-.42-.48-1.09t.48-1.07q.48-.41 1.28-.41t1.28.41q.49.41.49 1.07 0 .67-.49 1.09-.48.41-1.28.41m7.91-3.1v12.68q0 .31.08.45.09.14.27.2l.38.1q.189.06.27.17.09.1.09.25 0 .18-.13.29-.12.11-.4.11h-3.94q-.282 0-.41-.11a.38.38 0 0 1-.12-.29q0-.15.08-.25a.7.7 0 0 1 .28-.17l.4-.1q.169-.06.26-.2.09-.14.09-.45V26.41q-.001-.24-.08-.35a.37.37 0 0 0-.24-.14l-.54-.04a.5.5 0 0 1-.25-.12.33.33 0 0 1-.08-.23q0-.16.09-.26.099-.1.36-.2l1.9-.68a8 8 0 0 1 .6-.2q.228-.06.39-.06.329 0 .49.17a.63.63 0 0 1 .16.45"/></svg>